<svg viewBox="0 0 140 140" fill="none" xmlns="http://www.w3.org/2000/svg">
<path d="M132.5 25H32.5V115H132.5V25Z" stroke="currentColor" stroke-width="2"/>
<path d="M32 43H133" stroke="currentColor" stroke-width="2"/>
<path d="M32 61H133" stroke="currentColor" stroke-width="2"/>
<path d="M32 79H133" stroke="currentColor" stroke-width="2"/>
<path d="M32 97H133" stroke="currentColor" stroke-width="2"/>
<path d="M57.5 25V115" stroke="currentColor" stroke-width="2"/>
<path d="M82.5 25V115" stroke="currentColor" stroke-width="2"/>
<path d="M107.5 25V115" stroke="currentColor" stroke-width="2"/>
<path d="M20 29.5C22.4853 29.5 24.5 27.4853 24.5 25C24.5 22.5147 22.4853 20.5 20 20.5C17.5147 20.5 15.5 22.5147 15.5 25C15.5 27.4853 17.5147 29.5 20 29.5Z" stroke="currentColor" stroke-width="2"/>
<path d="M45 47.5C47.4853 47.5 49.5 45.4853 49.5 43C49.5 40.5147 47.4853 38.5 45 38.5C42.5147 38.5 40.5 40.5147 40.5 43C40.5 45.4853 42.5147 47.5 45 47.5Z" fill="currentColor" stroke="currentColor" stroke-width="2"/>
<path d="M20 65.5C22.4853 65.5 24.5 63.4853 24.5 61C24.5 58.5147 22.4853 56.5 20 56.5C17.5147 56.5 15.5 58.5147 15.5 61C15.5 63.4853 17.5147 65.5 20 65.5Z" stroke="currentColor" stroke-width="2"/>
<path d="M70 83.5C72.4853 83.5 74.5 81.4853 74.5 79C74.5 76.5147 72.4853 74.5 70 74.5C67.5147 74.5 65.5 76.5147 65.5 79C65.5 81.4853 67.5147 83.5 70 83.5Z" fill="currentColor" stroke="currentColor" stroke-width="2"/>
<path d="M95 101.5C97.4853 101.5 99.5 99.4853 99.5 97C99.5 94.5147 97.4853 92.5 95 92.5C92.5147 92.5 90.5 94.5147 90.5 97C90.5 99.4853 92.5147 101.5 95 101.5Z" fill="currentColor" stroke="currentColor" stroke-width="2"/>
<path d="M17.5 117.5L22.5 112.5" stroke="currentColor" stroke-width="2"/>
<path d="M17.5 112.5L22.5 117.5" stroke="currentColor" stroke-width="2"/>
</svg>
